:SAMPLES-PER-SECOND 24
:FULLY-SPECIFIED
:DEGREES
105
root  1.22316 39.8712 43.3448 -23.7493 66.7101 -33.1044
RightUpLeg  -25.8569 -20.4885 -0.462347
RightLeg  34.893 1.94347 1.26225
RightFoot  13.1939 -5.38113 24.5733
RightToes  -2.08645e-008 3.77894e-005 6.81332e-007
Spine  2.98072 1.3608 -6.33753
Spine1  6.14638 -0.715939 9.46228
HEad  -25.281 10.4875 1.14269
LeftShoulder1  6.35211 -12.3458 -34.0693
LeftArm  6.17853 28.9128 -10.546
LeftForeArm  45.0529 -74.7159 -39.4957
LeftHand  -0.650996 -4.07924 8.25078
RightShoulder  3.95642 6.6341 33.1417
RightArm  -7.66386 -17.2329 21.3415
RightForeArm  12.9496 20.2951 4.89777
RightHand  -1.22183 7.12203 -11.6347
LeftUpLeg  -11.877 -5.75477 13.7446
LeftLeg  18.4986 8.52029 3.5233
LeftFoot  -14.0041 0.0492205 -1.40331
LeftToes  1.24767e-006 1.47042e-008 1.32732e-009
106
root  1.59074 39.2427 44.2442 -17.3284 68.8212 -25.2588
RightUpLeg  -18.7792 -12.4329 -0.90983
RightLeg  28.5674 -9.19848 -5.5191
RightFoot  0.486785 -1.55855 14.3988
RightToes  -2.08645e-008 3.77894e-005 6.81332e-007
Spine  2.21905 1.49697 -4.38617
Spine1  6.09217 0.569931 4.96342
HEad  -24.1364 9.06032 0.000706385
LeftShoulder1  6.13733 -12.1021 -33.3258
LeftArm  1.4835 34.0757 -9.42947
LeftForeArm  41.6789 -74.1525 -38.1989
LeftHand  -0.669813 -4.17649 8.39972
RightShoulder  3.86539 6.50561 32.7331
RightArm  -3.9713 -15.1545 22.3204
RightForeArm  12.4639 24.1719 4.57236
RightHand  -1.21226 7.575 -11.1648
LeftUpLeg  -12.6423 -2.91672 11.2378
LeftLeg  23.7267 4.39221 2.43526
LeftFoot  -17.4347 -0.136548 -4.46714
LeftToes  1.24767e-006 1.47042e-008 1.32732e-009
107
root  1.91604 38.6335 44.8537 -15.0237 68.9561 -21.0452
RightUpLeg  -13.9146 -5.85087 -1.16766
RightLeg  26.5125 -18.4156 -9.93163
RightFoot  -7.29052 -0.404613 10.0111
RightToes  -2.08645e-008 3.77894e-005 6.81332e-007
Spine  2.96309 1.59885 0.982124
Spine1  6.16165 1.92915 -0.457075
HEad  -24.0481 7.94355 -2.29521
LeftShoulder1  6.22471 -12.0636 -33.9805
LeftArm  -6.69047 38.6215 -10.8621
LeftForeArm  40.0472 -74.098 -38.4477
LeftHand  -0.708788 -3.97681 9.04809
RightShoulder  3.82928 6.44665 32.5999
RightArm  -3.17567 -11.0147 22.6803
RightForeArm  13.7613 27.9954 5.30303
RightHand  -1.16812 7.75787 -10.6319
LeftUpLeg  -14.0571 0.502361 10.6927
LeftLeg  31.9107 1.16569 1.13567
LeftFoot  -19.4969 -0.346355 -6.49057
LeftToes  1.24767e-006 1.47042e-008 1.32732e-009
108
root  2.22999 38.3476 45.1761 -13.8765 67.3434 -18.825
RightUpLeg  -12.8992 -6.50051 -1.66292
RightLeg  27.3736 -15.2169 -8.58666
RightFoot  -9.75771 -0.210909 10.398
RightToes  -2.08645e-008 3.77894e-005 6.81332e-007
Spine  3.04515 1.91594 6.16167
Spine1  7.26257 3.09385 -3.95162
HEad  -25.3938 5.37677 -4.16522
LeftShoulder1  6.7321 -12.4065 -36.2631
LeftArm  -21.4654 41.9767 -17.9495
LeftForeArm  37.9163 -73.2645 -36.062
LeftHand  -0.862226 -3.90974 11.0044
RightShoulder  3.96687 6.57475 33.4737
RightArm  -3.72886 -5.16946 22.385
RightForeArm  15.8296 31.0755 5.91944
RightHand  -1.23801 7.79843 -11.2091
LeftUpLeg  -16.9604 4.72912 11.4213
LeftLeg  41.3766 -1.50318 -1.0438
LeftFoot  -17.6152 -0.327756 -7.90349
LeftToes  1.24767e-006 1.47042e-008 1.32732e-009
109
root  2.57365 38.3046 45.4207 -11.3792 65.5479 -15.4492
RightUpLeg  -12.7072 -9.9154 -3.10835
RightLeg  28.6858 -9.59518 -5.87739
RightFoot  -11.053 -0.101628 10.1866
RightToes  -2.08645e-008 3.77894e-005 6.81332e-007
Spine  3.02898 2.41501 7.32351
Spine1  7.87389 3.70011 -4.20421
HEad  -25.8133 -0.163127 -2.58046
LeftShoulder1  7.26158 -12.8661 -38.2456
LeftArm  -37.3886 42.9313 -29.2292
LeftForeArm  33.2314 -71.7241 -32.649
LeftHand  -1.0795 -3.75026 13.9444
RightShoulder  4.14229 6.72768 34.5922
RightArm  -5.17644 -1.39995 23.9185
RightForeArm  19.0667 34.0424 6.48138
RightHand  -1.34404 7.33465 -12.5563
LeftUpLeg  -20.311 8.4187 12.1409
LeftLeg  50.2804 -4.39166 -5.23828
LeftFoot  -11.1937 0.100497 -11.3439
LeftToes  1.24767e-006 1.47042e-008 1.32732e-009
110
root  3.04707 38.4154 45.5813 -9.0376 64.0186 -12.2806
RightUpLeg  -11.1738 -9.7033 -4.5989
RightLeg  27.9032 -8.51329 -5.09408
RightFoot  -11.3636 -0.0742941 10.3954
RightToes  -2.08645e-008 3.77894e-005 6.81332e-007
Spine  2.56699 2.69039 6.92935
Spine1  7.94179 3.90458 -3.49161
HEad  -24.6447 -7.77605 1.5795
LeftShoulder1  7.44277 -13.0691 -38.7717
LeftArm  -43.2596 41.9652 -37.3346
LeftForeArm  23.3458 -69.4642 -29.4505
LeftHand  -1.27365 -3.49559 16.8005
RightShoulder  4.2576 6.80348 35.4012
RightArm  -5.93618 -2.09057 28.1504
RightForeArm  20.2698 38.8549 7.75697
RightHand  -1.32574 6.66134 -13.0422
LeftUpLeg  -22.4088 10.5629 12.9465
LeftLeg  55.8405 -6.43621 -9.61917
LeftFoot  -4.81582 1.00583 -16.8287
LeftToes  1.24767e-006 1.47042e-008 1.32732e-009
111
root  3.67754 38.6823 45.5931 -6.61914 62.2347 -9.84802
RightUpLeg  -9.65232 -5.81017 -5.7006
RightLeg  25.3707 -10.0592 -5.38284
RightFoot  -9.95029 -0.212694 11.8914
RightToes  -2.08645e-008 3.77894e-005 6.81332e-007
Spine  0.688792 2.37004 6.62633
Spine1  8.44826 3.56258 -3.47642
HEad  -23.3844 -14.1681 4.92007
LeftShoulder1  7.42812 -13.0786 -38.6619
LeftArm  -40.348 41.6402 -39.5187
LeftForeArm  18.9587 -68.5301 -28.387
LeftHand  -1.4079 -4.28806 17.0693
RightShoulder  4.36231 6.88045 36.0893
RightArm  -3.66913 -4.50474 33.0126
RightForeArm  20.5431 44.1537 9.46358
RightHand  -1.21471 6.82366 -11.8359
LeftUpLeg  -23.0793 11.3118 13.643
LeftLeg  57.0384 -6.77044 -10.6064
LeftFoot  -3.19389 1.36744 -18.7877
LeftToes  1.24767e-006 1.47042e-008 1.32732e-009
